<svg version="1.1" id="Layer_1" xmlns:x="ns_extend;" xmlns:i="ns_ai;" xmlns:graph="ns_graphs;" xmlns="http://www.w3.org/2000/svg" xmlns:xlink="http://www.w3.org/1999/xlink" x="0px" y="0px" viewBox="0 0 270.2 56" style="enable-background:new 0 0 270.2 56;" xml:space="preserve">
 <style type="text/css">
  .st0{fill-rule:evenodd;clip-rule:evenodd;fill:#0450D5;}
 </style>
 <metadata>
  <sfw xmlns="ns_sfw;">
   <slices>
   </slices>
   <sliceSourceBounds bottomLeftOrigin="true" height="56" width="270.2" x="-112.4" y="0">
   </sliceSourceBounds>
  </sfw>
 </metadata>
 <g>
  <path class="st0" d="M6,8C5.1,7.1,4.7,5.9,4.8,4.6c0-1.2,0.5-2.4,1.4-3.3C7,0.5,8.2,0,9.5,0.1c1.2,0,2.4,0.5,3.2,1.4
		c0.9,0.8,1.4,2,1.4,3.2c0,1.3-0.5,2.5-1.4,3.4c-0.9,0.8-2.1,1.3-3.3,1.3C8.1,9.4,6.9,8.9,6,8z M19.2,31.3
		C14.6,43.9-2.9,47.3,0.4,31l3.8-18.5h8C10.4,22.3,9,28.3,7.6,35.2s7.3,1.8,9.3-3.9L19.2,31.3L19.2,31.3z">
  </path>
  <path class="st0" d="M63.1,31.7c-4.6,12.5-20.8,14.3-18.3,1.3c0.8-4.5,1.7-9.1,2.6-14.2c1.4-6.7-4.9-1.7-7,3.7
		c-0.1,0.1-0.2,0.3-0.2,0.5c-0.3,1.8-3.1,17.1-3.3,18.7h-7.6c1.6-9.1,2.9-16.3,4-22.6s-4.7-2.5-7.1,2.4c0,0,0,0.1-0.1,0.2l-4,20h-8
		l5.8-29.1h8l-0.8,3.9c4.6-5.6,13-6.2,13.5,1.7c6.1-8.3,16.6-8.9,13.8,4.7l-1,5.1c-0.5,2.6-0.5,2.7-1.4,7.5
		c-0.9,4.8,6.8,1.7,8.7-3.8L63.1,31.7L63.1,31.7z">
  </path>
  <path class="st0" d="M79.6,17.8C76,11.4,69.2,17.6,67.1,27c-2.2,10.5,1.7,16,9.6,5.1L79.6,17.8L79.6,17.8z M95.3,31.6
		c-4,10.7-17.9,14.5-18.7,4.5c-6.2,9.2-19.4,7.5-18.4-4.6C59,22.2,63.6,12.7,74,12.4h14.7l-0.4,2.2c-1.8,8.9-3,14.1-4.3,20.8
		c-1.3,6.7,7.2,1.6,9.1-3.8L95.3,31.6L95.3,31.6z">
  </path>
  <path class="st0" d="M112.2,17.3c-3.5-6.6-10.6-0.2-12.7,9.4c-2.3,10.8,1.7,16.3,9.8,5.4C109.2,32,112.2,17.3,112.2,17.3z
		 M121.5,12.2l-4.6,22c-2.4,13.5-6.4,25.7-23.6,20.8l5.4-5.6c2.9,2.2,5,2.5,6.7,1.6l0.2-1l2.7-12.9c-6.5,8.1-18.8,6-17.9-5.8
		c1.2-13.4,8.9-18.7,14.7-19c1.1,0,2.2-0.1,3.4-0.1L121.5,12.2z M129.5,27.4c9.2,0.3,10.3-10.7,8.8-11.9c-1.1-0.9-3.7,0.2-5.8,3.5
		c-1.5,2.4-2.5,5-3,7.8C129.4,27.1,129.4,27.3,129.5,27.4L129.5,27.4z M146.9,31.5c-4.6,8.4-9.3,10.5-16,10.3
		c-11-0.3-11.1-14.3-5.8-22.8c4.4-6.8,12-8.3,15.3-5.5c3,2.4,3,6.8,1.3,10.3c-2.5,4.5-7.4,7.1-12.6,6.6c0,2.8,1.1,6,3.6,7.3
		c4.5,2.1,9.2-1.4,12-5.9C144.8,31.5,146.9,31.5,146.9,31.5L146.9,31.5z">
  </path>
  <path class="st0" d="M162.6,16.2c-2.7,1.4-6.3,6.8-8.4,9.4l-0.6,2.8c0.6-0.2,1.2-0.5,1.7-0.7C164.7,23.8,167.2,13.7,162.6,16.2z
		 M167.8,41.6h-8.2l-6.4-10l-1.8,10h-8.2l8.1-40.7h7.9c-1.4,7.3-2.6,12.8-3.9,20.1c2-3.1,4.6-5.7,7.6-7.8c8.3-5,10.7,9.5-3.2,15.4
		L167.8,41.6L167.8,41.6z M176.2,8c-0.9-0.9-1.3-2.2-1.2-3.4c0-1.2,0.5-2.4,1.4-3.3c0.9-0.9,2.1-1.4,3.4-1.3c1.2,0,2.4,0.5,3.2,1.4
		c0.9,0.8,1.4,2,1.4,3.3c0,1.3-0.5,2.5-1.5,3.4c-0.9,0.8-2.1,1.3-3.3,1.3C178.3,9.4,177.1,8.9,176.2,8z M189.4,31.3
		c-4.6,12.6-22.1,16-18.8-0.3l3.7-18.5h8c-1.8,9.8-3.2,15.8-4.5,22.7c-1.4,6.8,7.3,1.8,9.3-3.9L189.4,31.3L189.4,31.3z">
  </path>
  <path class="st0" d="M205.4,31.4c-4.6,12.4-21.8,15.8-18.5-0.2L190,16h-3.4l1.4-3.5h2.8l1.6-7.5l8.3-1.7l-1.9,9.2h4.7l-1.7,3.5
		h-3.7l-3.9,19.3c-1.4,6.8,6.8,1.7,8.9-3.9L205.4,31.4z M207.6,33.9c0.9-0.9,2.1-1.4,3.3-1.4c2.6-0.1,4.7,2,4.8,4.5
		c0,0.1,0,0.2,0,0.2c0,1.3-0.5,2.5-1.4,3.4c-0.9,0.9-2.2,1.3-3.4,1.4c-2.6,0-4.7-2.2-4.7-4.8C206.3,36,206.8,34.9,207.6,33.9 M228,8
		c-0.9-0.9-1.3-2.2-1.2-3.4c0-1.2,0.5-2.4,1.4-3.3c0.9-0.9,2.1-1.4,3.3-1.4c1.2,0,2.4,0.5,3.2,1.4c0.9,0.8,1.4,2,1.4,3.3
		c0,1.3-0.5,2.5-1.4,3.4c-0.9,0.9-2.2,1.3-3.4,1.3C230,9.4,228.8,8.9,228,8L228,8z M241.1,31.3c-4.6,12.6-22.2,16-18.8-0.3l3.7-18.5
		h8c-1.8,9.8-3.2,15.8-4.6,22.7c-1.4,6.8,7.3,1.8,9.3-3.9L241.1,31.3L241.1,31.3z">
  </path>
  <path class="st0" d="M256.4,26.6c-2-0.4-4-1.3-5.6-2.6l3-4.1c0.7,0.7,1.6,1.2,2.5,1.6c-0.9-4.3-4.6-8.2-7.9-3.5
		c-2.9,4.2-5.5,16.9-0.3,19.8c2.8,1.6,6.8-1.2,8.3-10.8L256.4,26.6L256.4,26.6z M270.2,20.7c-2,1.9-4.3,3.5-6.8,4.8
		c-1.7,13.2-12.5,18.4-19.4,15.8c-5.4-2-7.4-7-6.8-12.3c0.7-6.1,4.2-11.5,9.4-14.6c5.4-3.1,13.5-3.4,16.3,3.3
		c0.5,1.3,0.8,2.7,0.8,4.1c2.3-0.6,4.5-1.6,6.4-3L270.2,20.7z">
  </path>
 </g>
</svg>